<svg xmlns="http://www.w3.org/2000/svg" width="1280" height="720" viewBox="0 0 1280 720" role="img" aria-label="ProfilerX home placeholder screenshot">
  <defs>
    <linearGradient id="bg" x1="0" x2="1" y1="0" y2="1">
      <stop offset="0%" stop-color="#0f172a" />
      <stop offset="100%" stop-color="#1e293b" />
    </linearGradient>
    <linearGradient id="accent" x1="0" x2="1">
      <stop offset="0%" stop-color="#22d3ee" />
      <stop offset="100%" stop-color="#60a5fa" />
    </linearGradient>
  </defs>
  <rect width="1280" height="720" fill="url(#bg)" />
  <rect x="40" y="28" width="1200" height="52" rx="14" fill="#0b1220" opacity="0.9" />
  <rect x="62" y="45" width="180" height="18" rx="9" fill="url(#accent)" />
  <rect x="998" y="44" width="90" height="20" rx="10" fill="#334155" />
  <rect x="1098" y="44" width="120" height="20" rx="10" fill="#334155" />
  <rect x="74" y="128" width="610" height="28" rx="10" fill="#e2e8f0" />
  <rect x="74" y="170" width="530" height="20" rx="10" fill="#94a3b8" />
  <rect x="74" y="208" width="420" height="20" rx="10" fill="#94a3b8" />
  <rect x="74" y="260" width="210" height="46" rx="14" fill="url(#accent)" />
  <rect x="304" y="260" width="180" height="46" rx="14" fill="#1e293b" stroke="#334155" />
  <rect x="742" y="122" width="464" height="252" rx="24" fill="#111827" stroke="#1f2937" />
  <rect x="772" y="158" width="280" height="18" rx="9" fill="#e2e8f0" />
  <rect x="772" y="194" width="390" height="16" rx="8" fill="#64748b" />
  <rect x="772" y="224" width="360" height="16" rx="8" fill="#64748b" />
  <rect x="772" y="254" width="330" height="16" rx="8" fill="#64748b" />
  <rect x="64" y="366" width="376" height="300" rx="24" fill="#0b1220" stroke="#1f2937" />
  <rect x="456" y="366" width="376" height="300" rx="24" fill="#0b1220" stroke="#1f2937" />
  <rect x="848" y="366" width="376" height="300" rx="24" fill="#0b1220" stroke="#1f2937" />
  <text x="74" y="700" fill="#cbd5e1" font-family="Segoe UI, Arial, sans-serif" font-size="20">
    ProfilerX Home Placeholder - replace with actual screenshot
  </text>
</svg>
