<svg xmlns="http://www.w3.org/2000/svg" width="1280" height="720" viewBox="0 0 1280 720" role="img" aria-label="ProfilerX admin ops placeholder screenshot">
  <defs>
    <linearGradient id="bg2" x1="0" x2="1" y1="0" y2="1">
      <stop offset="0%" stop-color="#111827" />
      <stop offset="100%" stop-color="#0f172a" />
    </linearGradient>
  </defs>
  <rect width="1280" height="720" fill="url(#bg2)" />
  <rect x="0" y="0" width="260" height="720" fill="#020617" />
  <rect x="28" y="36" width="204" height="18" rx="9" fill="#22d3ee" />
  <rect x="24" y="92" width="212" height="42" rx="12" fill="#0b1220" stroke="#1e293b" />
  <rect x="24" y="144" width="212" height="42" rx="12" fill="#0b1220" stroke="#1e293b" />
  <rect x="24" y="196" width="212" height="42" rx="12" fill="#0b1220" stroke="#1e293b" />
  <rect x="24" y="248" width="212" height="42" rx="12" fill="#0b1220" stroke="#1e293b" />
  <rect x="296" y="28" width="956" height="60" rx="16" fill="#0b1220" stroke="#1f2937" />
  <rect x="324" y="50" width="260" height="16" rx="8" fill="#e2e8f0" />
  <rect x="1102" y="45" width="120" height="24" rx="12" fill="#22d3ee" />
  <rect x="296" y="108" width="464" height="274" rx="22" fill="#0b1220" stroke="#1f2937" />
  <rect x="324" y="140" width="240" height="16" rx="8" fill="#e2e8f0" />
  <rect x="324" y="172" width="360" height="14" rx="7" fill="#64748b" />
  <rect x="324" y="202" width="400" height="14" rx="7" fill="#64748b" />
  <rect x="324" y="248" width="404" height="48" rx="12" fill="#1d4ed8" />
  <rect x="788" y="108" width="464" height="274" rx="22" fill="#0b1220" stroke="#1f2937" />
  <rect x="816" y="140" width="240" height="16" rx="8" fill="#e2e8f0" />
  <rect x="816" y="174" width="400" height="16" rx="8" fill="#475569" />
  <rect x="816" y="204" width="390" height="16" rx="8" fill="#475569" />
  <rect x="816" y="234" width="340" height="16" rx="8" fill="#475569" />
  <rect x="296" y="402" width="956" height="292" rx="22" fill="#0b1220" stroke="#1f2937" />
  <rect x="324" y="434" width="320" height="16" rx="8" fill="#e2e8f0" />
  <rect x="324" y="468" width="900" height="2" fill="#1f2937" />
  <rect x="324" y="490" width="280" height="14" rx="7" fill="#64748b" />
  <rect x="324" y="520" width="390" height="14" rx="7" fill="#64748b" />
  <rect x="324" y="550" width="360" height="14" rx="7" fill="#64748b" />
  <text x="298" y="706" fill="#cbd5e1" font-family="Segoe UI, Arial, sans-serif" font-size="20">
    ProfilerX Admin Ops Placeholder - replace with actual screenshot
  </text>
</svg>
